<svg id="Capa_1" enable-background="new 0 0 512 512" height="512" viewBox="0 0 512 512" width="512" xmlns="http://www.w3.org/2000/svg"><g><g><g><g><g><path d="m510.103 68.98-38.034 62.553h-432.14l-38.035-62.553c-5.213-8.571.948-19.532 10.971-19.532h486.255c10.025 0 16.196 10.961 10.983 19.532z" fill="#f1faff"/><path d="m510.113 68.97-38.044 62.563h-48.346l38.044-62.563c5.202-8.561-.958-19.522-10.982-19.522h48.336c10.024 0 16.195 10.961 10.992 19.522z" fill="#c9f0fd"/><path d="m345.511 369.947 11.507 10.302h-202.039l11.507-10.302c6.913-6.181 8.427-16.421 3.606-24.343l-136.427-224.373h444.667l-136.437 224.373c-4.811 7.922-3.297 18.162 3.616 24.343z" fill="#fb8189"/><path d="m345.511 369.947 11.507 10.302h-48.346l-11.507-10.302c-6.913-6.181-8.427-16.421-3.606-24.353l136.427-224.363h48.346l-136.427 224.363c-4.821 7.932-3.307 18.172 3.606 24.353z" fill="#fb6672"/><path d="m166.487 369.948-52.213 46.746c-17.967 16.086-6.589 45.855 17.528 45.855h248.39c24.116 0 35.495-29.769 17.528-45.855l-52.213-46.746z" fill="#f1faff"/><path d="m397.722 416.697-52.21-46.749h-179.024l-31.11 27.853h181.085c7.608 0 14.948 2.806 20.616 7.881l12.301 11.015c17.965 16.088 6.592 45.849-17.528 45.849h48.343c24.119.001 35.492-29.761 17.527-45.849z" fill="#c9f0fd"/></g><g><g id="XMLID_759_"><path d="m374.569 219.695c-4.116 0-7.537-3.247-7.713-7.399l-.013-.308c-.181-4.264 3.129-7.866 7.392-8.047 4.23-.183 7.865 3.129 8.046 7.392l.013.308c.181 4.264-3.129 7.866-7.392 8.047-.111.005-.222.007-.333.007z" fill="#fb4a59"/></g></g><g><g id="XMLID_757_"><path d="m360.965 192.772c-4.105 0-7.523-3.231-7.712-7.374l-.014-.308c-.195-4.263 3.103-7.876 7.366-8.071 4.255-.198 7.875 3.103 8.07 7.366l.014.308c.195 4.263-3.103 7.876-7.366 8.071-.119.005-.239.008-.358.008z" fill="#fcb5ba"/></g></g><g><g id="XMLID_755_"><path d="m176.084 262.638c-4.111 0-7.53-3.238-7.713-7.386l-.014-.308c-.188-4.263 3.115-7.871 7.378-8.059 4.242-.193 7.871 3.115 8.059 7.378l.014.308c.188 4.263-3.115 7.871-7.378 8.059-.115.005-.231.008-.346.008z" fill="#fb6672"/></g></g></g><g><circle cx="288.225" cy="308.417" fill="#fb4a59" r="25.906"/><path d="m313.84 304.553c2.133 14.15-7.607 27.348-21.758 29.481-7.554 1.139-14.837-1.11-20.3-5.604 13.78-2.442 23.175-15.442 21.078-29.358-.994-6.596-4.387-12.226-9.169-16.145.221-.054.445-.088.67-.122 14.15-2.132 27.348 7.608 29.479 21.748z" fill="#f82f40"/></g><g><circle cx="334.871" cy="307.424" fill="#fb4a59" r="25.906"/><path d="m360.487 303.56c2.133 14.15-7.607 27.348-21.758 29.481-7.554 1.139-14.837-1.11-20.3-5.604 13.78-2.442 23.175-15.442 21.078-29.358-.994-6.596-4.387-12.226-9.169-16.145.221-.054.445-.088.67-.122 14.149-2.132 27.347 7.608 29.479 21.748z" fill="#f82f40"/></g><g><circle cx="184.93" cy="315.079" fill="#fb4a59" r="28.529"/><path d="m213.14 310.824c2.349 15.583-8.378 30.117-23.961 32.466-8.319 1.254-16.34-1.223-22.356-6.172 15.176-2.689 25.522-17.005 23.212-32.33-1.095-7.264-4.831-13.464-10.097-17.779.244-.06.491-.097.738-.134 15.582-2.35 30.116 8.377 32.464 23.949z" fill="#f82f40"/></g><g><circle cx="222.891" cy="344.038" fill="#fb4a59" r="25.906"/><path d="m248.507 340.174c2.133 14.15-7.607 27.348-21.758 29.481-7.554 1.139-14.837-1.11-20.3-5.604 13.781-2.442 23.175-15.442 21.078-29.358-.994-6.596-4.387-12.226-9.169-16.145.221-.054.445-.088.67-.122 14.15-2.132 27.348 7.608 29.479 21.748z" fill="#f82f40"/></g><g><circle cx="262.315" cy="344.038" fill="#fb4a59" r="25.906"/><path d="m287.931 340.174c2.133 14.15-7.607 27.348-21.758 29.481-7.554 1.139-14.837-1.11-20.3-5.604 13.781-2.442 23.175-15.442 21.078-29.358-.994-6.596-4.387-12.226-9.169-16.145.221-.054.445-.088.67-.122 14.149-2.132 27.347 7.608 29.479 21.748z" fill="#f82f40"/></g></g><g><g><g><path d="m398.668 320.79c-9.394.278-17.109-7.411-17.253-16.808-.139-9.059 2.959-21.319 17.852-30.027 13.692-8.006 21.853-12.644 26.557-15.263 3.147-1.752 7.097-.16 8.153 3.284 3.444 11.238 7.739 34.519-9.839 48.09-10.337 7.98-18.91 10.53-25.47 10.724z" fill="#2db181"/></g><g><g><path d="m398.803 320.77c9.063-2.485 14.188-12.096 11.574-21.123-2.52-8.703-9.073-19.518-25.862-23.483-15.437-3.645-24.598-5.69-29.863-6.817-3.522-.754-6.833 1.925-6.834 5.527-.002 11.754 2.709 35.272 23.49 43.1 12.222 4.604 21.166 4.531 27.495 2.796z" fill="#bcea73"/></g></g></g><g><path d="m419.931 462.375c-25.703 3.853-81.848-59.4-87.133-94.746-4.832-32.214 19.543-50.705 53.734-58.195-.268 1.648-.464 2.854-.474 2.884-1.277 11.765-.814 25.579 1.339 39.961 2.596 17.338 7.294 33.172 13.238 44.607 5.985 11.507 10.662 13.495 11.497 13.361.834-.124 4.718-3.389 7.067-16.133 2.339-12.682 2.194-29.206-.391-46.533-1.082-7.191-2.524-14.124-4.275-20.624-1.751-6.49-3.822-12.548-6.15-17.987-.01-.031-.464-1.133-1.082-2.627 34.789-2.792 63.387 7.778 68.198 39.93 5.295 35.336-25.662 111.631-55.568 116.102z" fill="#fb6672"/><path d="m419.931 462.386c-4.78.711-10.611-.886-16.967-4.203 23.622-22.2 43.35-78.119 39.034-106.892-2.936-19.615-14.711-31.194-31.348-36.602-.721-1.978-1.484-3.884-2.266-5.717-.01-.031-.474-1.133-1.082-2.637 34.779-2.781 63.397 7.788 68.208 39.94 5.284 35.344-25.662 111.629-55.579 116.111z" fill="#fb4a59"/><path d="m426.445 346.437c5.619 37.533-.274 69.518-13.172 71.449s-27.899-26.926-33.518-64.459c-2.321-15.503-2.668-30.068-1.379-41.944 5.8-1.663 11.961-2.964 18.38-3.925s12.69-1.521 18.723-1.63c4.711 10.978 8.645 25.006 10.966 40.509z" fill="#ffd2d6"/></g></g><g><path d="m263.625 256.284-51.419-51.419c-3.337-3.337-3.337-8.747 0-12.084l51.419-51.419c3.337-3.337 8.747-3.337 12.084 0l51.419 51.419c3.337 3.337 3.337 8.747 0 12.084l-51.419 51.419c-3.337 3.337-8.747 3.337-12.084 0z" fill="#fcb5ba"/><path d="m327.124 204.867-51.415 51.415c-3.338 3.338-8.75 3.338-12.088 0l-17.259-17.259c3.338 3.338 8.75 3.338 12.088 0l51.415-51.415c3.338-3.338 3.338-8.75 0-12.088l17.259 17.259c3.338 3.338 3.338 8.75 0 12.088z" fill="#fc9aa1"/></g><g><g><g><g><path d="m280.568 82.259v49.274h-96.476v-49.274c0-3.987 3.235-7.222 7.222-7.222h82.033c3.987.001 7.221 3.235 7.221 7.222z" fill="#c9f0fd"/><path d="m280.568 82.259v49.274h-30.926v-49.274c0-3.987-3.235-7.222-7.222-7.222h30.926c3.988.001 7.222 3.235 7.222 7.222z" fill="#9ce6fb"/><path d="m280.563 121.251v43.035c0 1.994-.805 3.792-2.113 5.101-1.308 1.308-3.114 2.113-5.108 2.113h-82.029c-3.995 0-7.221-3.226-7.221-7.214v-43.035z" fill="#ffd2d6"/><path d="m280.563 121.251v43.035c0 1.994-.805 3.792-2.113 5.101-1.301 1.308-3.114 2.12-5.108 2.12h-30.921c.126 0 .252 0 .371-.007 3.813-.196 6.85-3.352 6.85-7.214v-43.035z" fill="#fcb5ba"/></g></g></g></g></g></g></svg>