<?xml version="1.0" encoding="iso-8859-1"?>
<!-- Generator: Adobe Illustrator 19.0.0, SVG Export Plug-In . SVG Version: 6.00 Build 0)  -->
<svg version="1.1" id="Capa_1" xmlns="http://www.w3.org/2000/svg" xmlns:xlink="http://www.w3.org/1999/xlink" x="0px" y="0px"
	 viewBox="0 0 472.003 472.003" style="enable-background:new 0 0 472.003 472.003;" xml:space="preserve">
<g>
	<path style="fill:#A2DAE7;" d="M108.001,160.003h256c22.091,0,40,17.909,40,40l0,0c0,22.091-17.909,40-40,40h-256
		c-22.091,0-40-17.909-40-40l0,0C68.001,177.911,85.91,160.003,108.001,160.003z"/>
	<path style="fill:#A2DAE7;" d="M164.001,80.003h144c22.091,0,40,17.909,40,40l0,0c0,22.091-17.909,40-40,40h-144
		c-22.091,0-40-17.909-40-40l0,0C124.001,97.911,141.91,80.003,164.001,80.003z"/>
	<path style="fill:#A2DAE7;" d="M233.033,24.003c-9.827,0.184-18.442-6.535-20.656-16.112c-0.517-2.604-0.517-5.284,0-7.888h-0.376
		c-17.052-0.2-32.31,10.559-37.848,26.688c-7.273,20.944,3.811,43.818,24.755,51.091c4.211,1.462,8.636,2.213,13.093,2.221h88
		c0-30.928-25.072-56-56-56H233.033z"/>
</g>
<g>
	<path style="fill:#FC88A1;" d="M108.001,200.003h16v16h-16V200.003z"/>
	<path style="fill:#FC88A1;" d="M148.001,184.003h16v16h-16V184.003z"/>
	<path style="fill:#FC88A1;" d="M196.001,200.003h16v16h-16V200.003z"/>
	<path style="fill:#FC88A1;" d="M244.001,184.003h16v16h-16V184.003z"/>
	<path style="fill:#FC88A1;" d="M300.001,184.003h16v16h-16V184.003z"/>
	<path style="fill:#FC88A1;" d="M340.001,200.003h16v16h-16V200.003z"/>
	<path style="fill:#FC88A1;" d="M244.001,40.003h16v16h-16V40.003z"/>
	<path style="fill:#FC88A1;" d="M180.001,104.003h16v16h-16V104.003z"/>
	<path style="fill:#FC88A1;" d="M220.001,120.003h16v16h-16V120.003z"/>
	<path style="fill:#FC88A1;" d="M292.001,104.003h16v16h-16V104.003z"/>
</g>
<path style="fill:#FFF3C9;" d="M76.001,240.003h320c22.091,0,40,17.909,40,40l0,0c0,22.091-17.909,40-40,40h-320
	c-22.091,0-40-17.909-40-40l0,0C36.001,257.911,53.91,240.003,76.001,240.003z"/>
<path style="fill:#FFEAB8;" d="M396.001,240.003h-40.064c-31.229,33.936-69.043,61.156-111.136,80h151.2c22.091,0,40-17.909,40-40
	S418.093,240.003,396.001,240.003z"/>
<path style="fill:#FC88A1;" d="M364.001,464.003h-256l-56-160c11.499-15.328,33.247-18.432,48.575-6.932
	c1.312,0.984,2.553,2.061,3.713,3.22l3.712,3.712l7.472-7.472c13.548-13.542,35.508-13.542,49.056,0l7.472,7.472l7.472-7.472
	c13.548-13.542,35.508-13.542,49.056,0l7.472,7.472l7.472-7.472c13.548-13.542,35.508-13.542,49.056,0l7.472,7.472l7.472-7.472
	c13.548-13.542,35.508-13.542,49.056,0l7.472,7.472l3.712-3.712c13.549-13.55,35.518-13.55,49.068-0.001
	c1.16,1.16,2.236,2.401,3.22,3.713L364.001,464.003z"/>
<path style="fill:#FC7B97;" d="M420.001,304.003c-11.493-15.328-33.235-18.436-48.562-6.944c-1.317,0.987-2.562,2.067-3.726,3.232
	l-3.712,3.712l-7.472-7.472c-5.407-5.365-12.441-8.784-20-9.72c-48.015,77.077-117.305,138.615-199.512,177.192h226.984
	L420.001,304.003z"/>
<g>
	<path style="fill:#F04855;" d="M236.001,472.003c-4.418,0-8-3.582-8-8v-160c0-4.418,3.582-8,8-8s8,3.582,8,8v160
		C244.001,468.421,240.42,472.003,236.001,472.003z"/>
	<path style="fill:#F04855;" d="M180.001,472.003c-4.267,0.005-7.787-3.339-8-7.6l-8-160c-0.221-4.418,3.182-8.179,7.6-8.4
		s8.179,3.182,8.4,7.6l8,160c0.226,4.412-3.168,8.173-7.58,8.399c-0.007,0-0.013,0.001-0.02,0.001H180.001z"/>
	<path style="fill:#F04855;" d="M292.001,472.003h-0.4c-4.413-0.215-7.816-3.967-7.601-8.38c0-0.007,0.001-0.013,0.001-0.02l8-160
		c0.221-4.418,3.982-7.821,8.4-7.6s7.821,3.982,7.6,8.4l0,0l-8,160C299.788,468.664,296.268,472.008,292.001,472.003z"/>
	<path style="fill:#F04855;" d="M132.001,472.003c-3.958-0.004-7.318-2.902-7.904-6.816l-24-160
		c-0.663-4.37,2.342-8.449,6.712-9.112s8.449,2.342,9.112,6.712l24,160c0.654,4.37-2.358,8.442-6.728,9.096c0,0,0,0,0,0
		C132.799,471.95,132.401,471.99,132.001,472.003z"/>
	<path style="fill:#F04855;" d="M340.001,472.003c-0.399-0.002-0.797-0.031-1.192-0.088c-4.37-0.654-7.382-4.726-6.728-9.096
		c0,0,0,0,0,0l24-160c0.663-4.37,4.742-7.375,9.112-6.712s7.375,4.742,6.712,9.112l0,0l-24,160
		C347.305,469.12,343.949,472.001,340.001,472.003L340.001,472.003z"/>
</g>
<g>
</g>
<g>
</g>
<g>
</g>
<g>
</g>
<g>
</g>
<g>
</g>
<g>
</g>
<g>
</g>
<g>
</g>
<g>
</g>
<g>
</g>
<g>
</g>
<g>
</g>
<g>
</g>
<g>
</g>
</svg>
